# xmcd CD database file
#
# Track frame offsets:
#	150
#	23340
#	41007
#	62907
#	83170
#	106712
#	132922
#	162012
#	181465
#	207202
#
# Disc length: 3130 seconds
#
# Revision: 0
# Processed by: cddbd v1.5.1PL2 Copyright (c) Steve Scherf et al.
# Submitted via: CDex 1.51
#
DISCID=770c380a
DTITLE=ELLIS - ハートには逆らえない
DYEAR=1998
DGENRE=J-Pop
TTITLE0=夏の嵐の真中で
TTITLE1=Childhood
TTITLE2=愛の休日＜ホリデー＞
TTITLE3=千の夜と一つの朝
TTITLE4=大好きだって言いなさい
TTITLE5=２０世紀LOVERS
TTITLE6=Metro
TTITLE7=渚にて。
TTITLE8=ハートには逆らえない
TTITLE9=TOMORROW
EXTD=YEAR: 1998
EXTT0=
EXTT1=
EXTT2=
EXTT3=
EXTT4=
EXTT5=
EXTT6=
EXTT7=
EXTT8=
EXTT9=
PLAYORDER=
